<svg version="1.1" id="Layer_1" xmlns="http://www.w3.org/2000/svg" xmlns:xlink="http://www.w3.org/1999/xlink" x="0px" y="0px"
	 width="100%" viewBox="0 0 972 972" enable-background="new 0 0 972 972" xml:space="preserve">
<path fill="#000000" opacity="1.000000" stroke="none" 
	d="
M543.000000,973.000000 
	C362.000000,973.000000 181.500000,973.000000 1.000000,973.000000 
	C1.000000,649.000000 1.000000,325.000000 1.000000,1.000000 
	C325.000000,1.000000 649.000000,1.000000 973.000000,1.000000 
	C973.000000,325.000000 973.000000,649.000000 973.000000,973.000000 
	C829.833313,973.000000 686.666687,973.000000 543.000000,973.000000 
M400.774506,443.850433 
	C402.164398,443.774872 403.554321,443.699341 405.856476,443.881348 
	C499.013763,444.022705 592.171326,444.065796 685.328186,444.348755 
	C728.986023,444.481384 772.643433,445.003326 816.299133,445.507874 
	C829.157104,445.656494 840.846008,442.181458 851.938599,435.899078 
	C874.228455,423.275116 878.216248,392.148834 855.362244,376.371002 
	C844.422729,368.818695 832.276550,365.281738 819.233765,365.265503 
	C685.411804,365.098663 551.589661,365.068573 417.767548,365.036926 
	C413.480591,365.035919 409.193573,365.426849 404.303223,365.427917 
	C403.891968,365.505066 403.480682,365.582184 402.358002,365.306366 
	C393.915771,366.740692 385.473511,368.175018 376.398132,369.421906 
	C375.969452,369.494934 375.540741,369.567993 374.399872,369.342346 
	C370.543335,370.850037 366.673157,372.323914 362.832642,373.871368 
	C347.768829,379.940857 335.247009,389.415314 327.254700,403.589142 
	C321.082611,414.534943 316.294464,426.271759 311.067566,437.737366 
	C302.677917,456.140717 294.426056,474.606873 286.156281,493.064575 
	C285.795410,493.870056 285.836243,494.855530 285.655975,495.966705 
	C286.834534,496.071167 287.643250,496.204865 288.452057,496.205566 
	C313.588837,496.227417 338.727203,496.090149 363.861237,496.358276 
	C369.563599,496.419098 371.946259,493.832184 374.081940,489.035797 
	C379.891785,475.987640 386.037628,463.075409 392.543274,450.361542 
	C393.946503,447.619324 397.420593,445.936798 400.774506,443.850433 
M209.628952,630.976685 
	C204.556625,641.212158 199.500366,651.455688 194.408340,661.681396 
	C185.500031,679.570679 176.569702,697.449036 167.500748,715.628357 
	C168.708862,715.729736 169.806229,715.901001 170.903793,715.902344 
	C196.060349,715.931824 221.224258,715.610657 246.368820,716.167358 
	C253.549118,716.326294 258.521973,715.648743 260.165009,707.717163 
	C260.621765,705.512085 262.162262,703.536072 263.177948,701.441589 
	C278.392822,670.065674 293.608795,638.690247 308.786804,607.296570 
	C309.243896,606.351196 309.292358,605.208252 309.709167,603.375427 
	C307.381256,603.375427 305.601624,603.376709 303.822021,603.375244 
	C285.662537,603.359863 267.500122,603.521240 249.345230,603.224731 
	C243.587830,603.130676 237.771286,602.176941 232.129059,600.943237 
	C227.692795,599.973206 224.893799,600.699585 222.822327,605.003113 
	C218.719986,613.525574 214.258209,621.874939 209.628952,630.976685 
M566.013733,612.308167 
	C564.642700,609.839233 562.951172,607.490540 561.970215,604.875244 
	C560.177612,600.095764 557.031006,598.537292 551.992310,598.619507 
	C528.186218,599.007935 504.374939,599.073242 480.565857,599.294617 
	C478.876678,599.310303 477.190552,599.654968 474.723022,599.935242 
	C476.045746,602.184631 476.835236,603.601074 477.693115,604.974915 
	C488.727020,622.644226 500.156494,640.080933 510.699677,658.038086 
	C520.589355,674.882080 529.680786,692.202637 538.813904,709.477173 
	C541.086121,713.774902 543.901611,715.322998 548.633667,715.312073 
	C571.110840,715.260071 593.588623,715.494141 616.066345,715.595886 
	C617.974548,715.604553 619.883728,715.388794 622.765930,715.220459 
	C618.320251,706.940125 614.414795,699.473206 610.335449,692.102600 
	C595.720764,665.696899 581.047180,639.323853 566.013733,612.308167 
M321.872498,506.029419 
	C302.086121,506.122375 282.298523,506.110016 262.513611,506.333405 
	C234.159866,506.653564 206.308807,510.057190 179.233307,519.131531 
	C160.162323,525.523132 142.329803,534.250732 126.679062,546.726196 
	C114.309967,556.585754 102.994492,567.772217 91.307808,578.475037 
	C90.149559,579.535828 89.666245,581.333557 88.204941,584.004028 
	C92.312347,584.004028 95.088326,584.030273 97.863670,583.999878 
	C125.347176,583.698853 152.830414,583.372192 180.314056,583.084656 
	C218.952805,582.680359 257.591187,582.066772 296.230865,581.963989 
	C375.373199,581.753418 454.517090,581.606628 533.658630,581.894653 
	C561.545349,581.996155 586.789490,573.861877 610.253357,559.735718 
	C645.676392,538.409607 663.544434,504.164490 676.899353,466.874817 
	C678.635681,462.026489 677.662415,461.116394 672.286316,461.111542 
	C641.315063,461.083588 610.343506,461.167999 579.373047,461.011810 
	C575.231384,460.990967 572.283203,462.583221 569.920532,465.527283 
	C566.809753,469.403717 564.047485,473.558319 560.976990,477.468903 
	C554.641968,485.536957 548.431946,493.724609 541.667236,501.420746 
	C539.602539,503.769775 535.984253,505.773926 532.920776,506.025146 
	C525.018066,506.673126 517.027649,506.290863 509.072601,506.254364 
	C464.103485,506.048096 419.134674,505.761383 374.165344,505.634521 
	C357.043121,505.586243 339.919891,505.889618 321.872498,506.029419 
z"/>
<path fill="#FDFDFD" opacity="1.000000" stroke="none" 
	d="
M375.112061,369.641022 
	C375.540741,369.567993 375.969452,369.494934 376.811584,369.823212 
	C383.152130,369.671753 389.111450,369.337708 394.992096,368.470215 
	C397.762482,368.061523 400.381714,366.628326 403.069427,365.659363 
	C403.480682,365.582184 403.891968,365.505066 404.852020,365.878052 
	C408.942627,366.529480 412.484406,366.730835 416.020966,367.309052 
	C418.227173,373.816742 419.638550,374.664795 424.907410,373.206024 
	C427.700897,372.432587 429.463348,373.566406 429.892731,376.422882 
	C430.491577,380.406677 433.041107,384.527100 428.683472,388.198639 
	C427.869568,388.884369 428.385803,391.148895 428.291290,392.636108 
	C418.228546,393.864594 411.319275,401.112885 409.872559,410.665741 
	C408.927002,416.909546 406.969666,423.006256 405.333862,429.133698 
	C405.052185,430.188721 403.859222,430.986725 403.519684,432.042542 
	C402.256989,435.968781 396.811371,437.739258 397.625305,442.959167 
	C390.451508,444.593445 389.963654,451.383667 387.516479,455.993103 
	C381.757080,466.841461 377.352325,478.402557 372.130157,489.549103 
	C371.265778,491.394196 369.110565,493.802521 367.430756,493.901855 
	C358.723083,494.416656 349.976105,494.266327 341.242828,494.348145 
	C333.159180,494.423859 325.075714,494.534119 316.991882,494.567078 
	C307.604309,494.605377 298.216492,494.576019 288.268799,494.576019 
	C289.272339,492.332428 290.144836,490.235535 291.135712,488.196136 
	C293.456604,483.419342 296.010254,478.747528 298.147461,473.891388 
	C301.324585,466.672241 304.168976,459.307465 307.254089,452.046753 
	C311.414154,442.256226 315.604919,432.477692 319.899841,422.745789 
	C324.267090,412.850006 328.166412,402.544647 336.098419,394.854523 
	C341.647675,389.474487 348.111298,385.047729 354.039703,380.044952 
	C357.816986,376.857452 362.254791,375.344818 366.963135,375.036011 
	C370.953583,374.774231 373.029785,372.385345 375.112061,369.641022 
z"/>
<path fill="#F9F9F9" opacity="1.000000" stroke="none" 
	d="
M209.786987,630.636292 
	C214.258209,621.874939 218.719986,613.525574 222.822327,605.003113 
	C224.893799,600.699585 227.692795,599.973206 232.129059,600.943237 
	C237.771286,602.176941 243.587830,603.130676 249.345230,603.224731 
	C267.500122,603.521240 285.662537,603.359863 303.822021,603.375244 
	C305.601624,603.376709 307.381256,603.375427 309.709167,603.375427 
	C309.292358,605.208252 309.243896,606.351196 308.786804,607.296570 
	C293.608795,638.690247 278.392822,670.065674 263.177948,701.441589 
	C262.162262,703.536072 260.621765,705.512085 260.165009,707.717163 
	C258.521973,715.648743 253.549118,716.326294 246.368820,716.167358 
	C221.224258,715.610657 196.060349,715.931824 170.903793,715.902344 
	C169.806229,715.901001 168.708862,715.729736 167.500748,715.628357 
	C176.569702,697.449036 185.500031,679.570679 194.408340,661.681396 
	C199.500366,651.455688 204.556625,641.212158 209.786987,630.636292 
z"/>
<path fill="#F9F9F9" opacity="1.000000" stroke="none" 
	d="
M566.204834,612.623291 
	C581.047180,639.323853 595.720764,665.696899 610.335449,692.102600 
	C614.414795,699.473206 618.320251,706.940125 622.765930,715.220459 
	C619.883728,715.388794 617.974548,715.604553 616.066345,715.595886 
	C593.588623,715.494141 571.110840,715.260071 548.633667,715.312073 
	C543.901611,715.322998 541.086121,713.774902 538.813904,709.477173 
	C529.680786,692.202637 520.589355,674.882080 510.699677,658.038086 
	C500.156494,640.080933 488.727020,622.644226 477.693115,604.974915 
	C476.835236,603.601074 476.045746,602.184631 474.723022,599.935242 
	C477.190552,599.654968 478.876678,599.310303 480.565857,599.294617 
	C504.374939,599.073242 528.186218,599.007935 551.992310,598.619507 
	C557.031006,598.537292 560.177612,600.095764 561.970215,604.875244 
	C562.951172,607.490540 564.642700,609.839233 566.204834,612.623291 
z"/>
<path fill="#D0D0CF" opacity="1.000000" stroke="none" 
	d="
M416.026215,366.932129 
	C412.484406,366.730835 408.942627,366.529480 405.153687,365.981628 
	C409.193573,365.426849 413.480591,365.035919 417.767548,365.036926 
	C551.589661,365.068573 685.411804,365.098663 819.233765,365.265503 
	C832.276550,365.281738 844.422729,368.818695 855.362244,376.371002 
	C878.216248,392.148834 874.228455,423.275116 851.938599,435.899078 
	C840.846008,442.181458 829.157104,445.656494 816.299133,445.507874 
	C772.643433,445.003326 728.986023,444.481384 685.328186,444.348755 
	C592.171326,444.065796 499.013763,444.022705 405.516907,443.391846 
	C408.118256,442.601166 411.059113,442.299957 414.401062,442.010254 
	C415.871765,441.994446 416.941406,441.967163 418.339722,441.950195 
	C419.106598,441.951782 419.544861,441.943054 420.452576,441.960388 
	C428.618256,441.666626 436.314423,441.346802 444.478607,441.030731 
	C468.632141,441.024689 492.317688,441.014893 516.432373,441.007965 
	C519.243042,440.686859 521.624573,440.362823 524.333557,440.033569 
	C525.097168,440.030273 525.533447,440.032196 526.272522,440.324707 
	C536.040894,440.746368 545.508423,441.069092 554.971375,440.965790 
	C571.074585,440.790100 587.176086,440.391754 603.275635,439.983002 
	C607.242920,439.882324 611.810669,437.979553 615.024719,439.379425 
	C620.405518,441.722992 623.496094,437.957794 628.998657,437.145874 
	C626.262268,435.407776 624.311584,434.673462 623.154297,433.280151 
	C622.158142,432.080750 622.066711,430.129852 621.575317,428.511230 
	C623.204102,428.335999 625.004639,427.628418 626.428650,428.087860 
	C630.304016,429.338104 632.220276,428.421356 633.016846,424.159180 
	C639.582397,423.498535 646.866150,425.303925 651.550720,418.681244 
	C653.880127,421.248474 654.651123,426.533722 658.819702,421.434998 
	C657.875488,420.109955 657.087585,419.004272 656.350098,417.969360 
	C661.194641,416.242615 665.648621,414.655090 670.012756,413.099579 
	C670.386536,415.877838 670.703735,418.235596 670.884949,419.582855 
	C674.076294,418.184174 676.562561,417.094513 679.323120,416.260559 
	C679.948975,421.098755 680.300598,425.681244 680.748779,431.522369 
	C676.473450,428.630585 674.474670,428.435760 673.776794,432.541443 
	C673.612976,433.504852 671.829712,434.622375 670.615906,434.899384 
	C666.595276,435.816956 662.460754,436.236359 658.441528,437.158722 
	C656.904480,437.511444 655.560730,438.706390 653.197937,440.044952 
	C655.062378,440.623779 655.640015,440.942596 656.229126,440.965240 
	C665.787903,441.332581 675.345642,441.817841 684.908508,441.970673 
	C711.185608,442.390717 737.464600,442.706787 763.743713,442.982361 
	C774.570801,443.095886 785.401184,442.908752 796.227844,443.040588 
	C801.350464,443.102966 806.501526,444.105072 811.579529,443.769531 
	C818.966248,443.281403 826.519775,442.762054 833.592468,440.787842 
	C840.812927,438.772430 848.413269,436.114502 854.214783,431.627136 
	C859.222534,427.753815 863.658691,422.490875 866.413330,415.838440 
	C869.862061,407.510071 869.140442,399.970490 865.786377,392.397919 
	C862.923035,385.933411 857.816528,381.518463 851.856812,377.375244 
	C842.874817,371.130951 833.102661,368.918518 822.701965,368.100006 
	C820.950623,367.962219 819.051147,369.031067 817.296082,369.732483 
	C809.741577,372.751526 802.208069,375.797333 793.835693,375.476715 
	C789.058472,375.293762 784.278259,375.189056 779.501770,374.990723 
	C776.082214,374.848694 774.283813,375.804535 776.454834,380.390167 
	C770.106812,374.271820 763.025574,375.450989 755.274048,376.384369 
	C757.413818,380.493835 754.524109,380.027405 752.004761,379.612427 
	C751.342896,378.588654 750.697266,377.931549 750.051758,377.274475 
	C749.778442,377.771942 749.505188,378.269409 749.231812,378.766846 
	C750.147583,379.184875 751.063416,379.602905 751.985596,380.442017 
	C751.913330,382.444031 751.834717,384.024933 751.822021,384.279938 
	C747.482422,385.550201 744.142883,386.731201 740.704590,387.416016 
	C739.605652,387.634888 738.244873,386.538757 737.149658,385.734436 
	C737.536377,383.604706 737.777283,381.784821 738.181030,379.728851 
	C738.882202,379.328735 739.420471,379.164703 740.163208,379.249512 
	C741.116821,379.331757 741.866089,379.165161 742.615295,378.998596 
	C741.728882,378.330383 740.842468,377.662140 739.611755,376.998291 
	C738.190979,377.329590 737.114441,377.656494 735.657471,377.984070 
	C734.516052,377.974762 733.755127,377.964752 732.949585,377.641571 
	C731.617126,377.216492 730.329285,377.104584 728.771057,376.989197 
	C728.320312,376.985077 728.140015,376.984436 727.753174,376.881226 
	C727.289368,376.590302 727.111023,376.344757 727.279907,375.838989 
	C728.305481,374.412262 729.062561,373.188538 730.052734,371.588043 
	C728.523621,370.972870 727.377747,370.177338 726.175842,370.081268 
	C716.553223,369.311890 706.928223,368.290710 697.288208,368.085022 
	C681.866455,367.756012 666.432556,367.995026 650.534790,367.992950 
	C626.031494,367.708191 601.997253,367.424408 577.507080,367.107239 
	C551.365906,367.056183 525.680725,367.038483 499.663788,367.012787 
	C498.889709,367.011017 498.447388,367.017242 497.576111,367.007233 
	C495.430359,366.999176 493.713470,367.007294 491.664490,367.007385 
	C490.889496,367.004517 490.446594,367.009674 489.669434,367.001129 
	C488.889160,366.995148 488.443176,367.002899 487.528809,367.000885 
	C463.382324,366.971497 439.704285,366.951813 416.026215,366.932129 
M632.032776,438.865723 
	C635.851624,443.230225 640.276489,440.207489 644.410522,440.730499 
	C644.514465,440.105072 644.618347,439.479645 644.722290,438.854218 
	C641.829956,438.236145 638.937622,437.618073 635.699890,436.385681 
	C633.126221,433.947449 632.063538,434.885132 632.032776,438.865723 
M668.503662,429.607025 
	C669.568665,430.263916 670.633606,430.920807 671.698608,431.577698 
	C671.945740,430.948547 672.192810,430.319427 672.439941,429.690277 
	C671.298096,429.526917 670.156189,429.363556 668.503662,429.607025 
M650.877930,440.817841 
	C650.331787,439.930084 649.785583,439.042297 649.239441,438.154510 
	C648.793640,438.624146 648.347839,439.093781 647.901978,439.563416 
	C648.671631,440.021606 649.441223,440.479767 650.877930,440.817841 
z"/>
<path fill="#F4F4F5" opacity="1.000000" stroke="none" 
	d="
M498.005035,367.023438 
	C498.447388,367.017242 498.889709,367.011017 499.740082,367.379486 
	C500.636902,368.141876 501.071533,368.744965 501.622986,368.883728 
	C506.780823,370.181946 507.016174,370.860687 505.077393,375.739685 
	C508.919678,379.987854 512.280334,383.703552 515.641052,387.419250 
	C515.407166,388.217407 515.173218,389.015564 514.939331,389.813721 
	C511.236237,390.474701 507.527893,391.107880 503.831390,391.803925 
	C499.416351,392.635284 494.858307,393.079224 490.656128,394.537811 
	C487.864838,395.506714 485.588715,397.959717 482.794067,399.953857 
	C481.660004,396.784760 480.389404,396.807251 477.687866,398.565735 
	C474.047516,400.935242 469.807678,403.365204 465.643982,403.736237 
	C457.971252,404.419952 453.894531,410.659454 448.032349,413.947266 
	C445.422852,415.410828 443.948120,417.021942 441.770355,415.687286 
	C440.029602,417.570251 438.836243,419.339172 437.202972,420.476135 
	C435.902924,421.381134 433.880371,421.211151 432.504547,422.051910 
	C429.411743,423.941742 426.514282,426.153015 423.566345,428.273773 
	C423.384766,428.404388 423.455322,428.885406 423.369446,429.469604 
	C424.452698,429.469604 425.483978,429.469604 427.211334,429.469604 
	C426.120972,431.687195 425.372681,433.485962 424.388153,435.144501 
	C423.012177,437.462585 421.459930,439.676056 419.983093,441.934296 
	C419.544861,441.943054 419.106598,441.951782 418.271240,441.611389 
	C416.174164,439.358856 414.816254,439.254272 414.000000,441.998779 
	C411.059113,442.299957 408.118256,442.601166 405.060791,443.263062 
	C403.554321,443.699341 402.164398,443.774872 400.191833,443.578552 
	C399.063385,443.162445 398.517639,443.018219 397.971893,442.874023 
	C396.811371,437.739258 402.256989,435.968781 403.519684,432.042542 
	C403.859222,430.986725 405.052185,430.188721 405.333862,429.133698 
	C406.969666,423.006256 408.927002,416.909546 409.872559,410.665741 
	C411.319275,401.112885 418.228546,393.864594 428.291290,392.636108 
	C428.385803,391.148895 427.869568,388.884369 428.683472,388.198639 
	C433.041107,384.527100 430.491577,380.406677 429.892731,376.422882 
	C429.463348,373.566406 427.700897,372.432587 424.907410,373.206024 
	C419.638550,374.664795 418.227173,373.816742 416.020966,367.309021 
	C439.704285,366.951813 463.382324,366.971497 487.568939,367.297241 
	C488.483582,367.920227 488.889679,368.237152 489.295776,368.554047 
	C489.531738,368.040955 489.767731,367.527893 490.003723,367.014832 
	C490.446594,367.009674 490.889496,367.004517 491.741089,367.371948 
	C494.368530,369.672089 496.399933,370.078369 498.005035,367.023438 
z"/>
<path fill="#386D8D" opacity="1.000000" stroke="none" 
	d="
M322.334808,506.031067 
	C339.919891,505.889618 357.043121,505.586243 374.165344,505.634521 
	C419.134674,505.761383 464.103485,506.048096 509.072601,506.254364 
	C517.027649,506.290863 525.018066,506.673126 532.920776,506.025146 
	C535.984253,505.773926 539.602539,503.769775 541.667236,501.420746 
	C548.431946,493.724609 554.641968,485.536957 560.976990,477.468903 
	C564.047485,473.558319 566.809753,469.403717 569.920532,465.527283 
	C572.283203,462.583221 575.231384,460.990967 579.373047,461.011810 
	C610.343506,461.167999 641.315063,461.083588 672.286316,461.111542 
	C677.662415,461.116394 678.635681,462.026489 676.899353,466.874817 
	C663.544434,504.164490 645.676392,538.409607 610.253357,559.735718 
	C586.789490,573.861877 561.545349,581.996155 533.658630,581.894653 
	C454.517090,581.606628 375.373199,581.753418 296.230865,581.963989 
	C257.591187,582.066772 218.952805,582.680359 180.314056,583.084656 
	C152.830414,583.372192 125.347176,583.698853 97.863670,583.999878 
	C95.088326,584.030273 92.312347,584.004028 88.204941,584.004028 
	C89.666245,581.333557 90.149559,579.535828 91.307808,578.475037 
	C102.994492,567.772217 114.309967,556.585754 126.679062,546.726196 
	C142.329803,534.250732 160.162323,525.523132 179.233307,519.131531 
	C206.308807,510.057190 234.159866,506.653564 262.513611,506.333405 
	C282.298523,506.110016 302.086121,506.122375 322.334808,506.031067 
M671.052795,463.064728 
	C641.124023,463.037506 611.194702,462.929718 581.267334,463.121307 
	C578.595581,463.138428 575.109009,464.372925 573.425354,466.291840 
	C568.243530,472.197601 563.753418,478.710327 558.365967,485.255737 
	C557.859741,486.461761 557.353455,487.667816 556.455627,489.105194 
	C556.201538,489.282562 556.005432,489.509857 555.300781,490.162292 
	C552.167358,493.801697 548.747864,497.237122 545.971497,501.131104 
	C542.343445,506.219574 538.022705,509.059448 531.503845,509.029236 
	C500.442383,508.885193 469.379822,508.977692 438.317657,509.003601 
	C432.899078,509.008118 427.480011,509.065674 422.062073,509.153015 
	C408.612610,509.369812 395.159088,509.946747 381.715820,509.759888 
	C368.631897,509.578033 355.563629,508.321411 342.479187,508.108887 
	C331.771423,507.934937 321.051239,508.717804 310.333893,508.840912 
	C306.043945,508.890228 301.732574,507.928467 297.455658,508.088135 
	C286.365936,508.502197 275.290771,509.299011 264.208191,509.913910 
	C251.966675,510.593048 239.720276,511.187500 227.481567,511.912933 
	C209.477142,512.980164 192.316345,517.971558 175.284210,523.443298 
	C173.325760,524.072510 171.674942,525.659241 169.105377,526.869873 
	C166.372253,527.849060 163.639130,528.828186 160.198074,529.895081 
	C158.423737,530.907288 156.649384,531.919434 154.435272,532.924316 
	C154.435272,532.924316 153.997772,532.969482 153.355209,533.017212 
	C152.556381,533.651428 151.757553,534.285645 150.370010,534.974365 
	C149.899109,535.286804 149.428207,535.599243 148.301575,536.000732 
	C147.153381,536.974304 146.005188,537.947815 144.160049,538.999695 
	C126.120445,550.311340 109.175430,562.890320 95.496681,579.250977 
	C95.780586,579.854980 96.064491,580.458923 96.348404,581.062866 
	C102.566734,581.062866 108.785057,581.062866 115.935135,581.078125 
	C120.622314,581.071838 125.309494,581.065613 130.923401,581.078308 
	C134.950089,581.070679 138.976791,581.063049 143.940262,581.071960 
	C155.960251,581.019165 167.980225,580.966431 180.843643,580.947144 
	C190.230316,580.651367 199.616974,580.355591 209.936768,580.078613 
	C214.957260,580.065186 219.977753,580.051758 225.919632,580.056580 
	C229.613388,580.040161 233.307144,580.023743 237.914749,580.039429 
	C241.627121,579.737915 245.339478,579.436340 249.982193,579.119446 
	C258.989655,579.100769 267.997131,579.082153 277.802856,579.077942 
	C278.867371,579.070496 279.931885,579.062988 281.933502,579.073792 
	C288.290131,579.064392 294.646729,579.054932 301.940033,579.068909 
	C327.765411,579.068787 353.597382,579.443970 379.414886,578.992798 
	C438.750854,577.955933 498.152649,581.782776 557.415039,576.848816 
	C565.923950,576.140320 574.553833,573.521118 582.498901,570.256042 
	C592.456848,566.163757 602.104980,561.035706 611.249023,555.332092 
	C618.844421,550.594482 626.317566,545.127197 632.400818,538.630859 
	C640.471863,530.011780 647.646973,520.417114 654.217163,510.580475 
	C658.137939,504.710358 660.162964,497.573975 663.133423,490.295746 
	C666.475891,483.206390 669.818359,476.117035 673.610352,468.666199 
	C673.766418,468.118378 673.922546,467.570557 674.168152,466.546204 
	C674.168152,466.546204 674.192261,466.061920 674.612488,465.617065 
	C673.736816,464.790619 672.861206,463.964172 671.052795,463.064728 
z"/>
<path fill="#D0D0CF" opacity="1.000000" stroke="none" 
	d="
M397.625305,442.959137 
	C398.517639,443.018219 399.063385,443.162445 399.774963,443.536438 
	C397.420593,445.936798 393.946503,447.619324 392.543274,450.361542 
	C386.037628,463.075409 379.891785,475.987640 374.081940,489.035797 
	C371.946259,493.832184 369.563599,496.419098 363.861237,496.358276 
	C338.727203,496.090149 313.588837,496.227417 288.452057,496.205566 
	C287.643250,496.204865 286.834534,496.071167 285.655975,495.966705 
	C285.836243,494.855530 285.795410,493.870056 286.156281,493.064575 
	C294.426056,474.606873 302.677917,456.140717 311.067566,437.737366 
	C316.294464,426.271759 321.082611,414.534943 327.254700,403.589142 
	C335.247009,389.415314 347.768829,379.940857 362.832642,373.871368 
	C366.673157,372.323914 370.543335,370.850037 374.755981,369.491699 
	C373.029785,372.385345 370.953583,374.774231 366.963135,375.036011 
	C362.254791,375.344818 357.816986,376.857452 354.039703,380.044952 
	C348.111298,385.047729 341.647675,389.474487 336.098419,394.854523 
	C328.166412,402.544647 324.267090,412.850006 319.899841,422.745789 
	C315.604919,432.477692 311.414154,442.256226 307.254089,452.046753 
	C304.168976,459.307465 301.324585,466.672241 298.147461,473.891388 
	C296.010254,478.747528 293.456604,483.419342 291.135712,488.196136 
	C290.144836,490.235535 289.272339,492.332428 288.268799,494.576019 
	C298.216492,494.576019 307.604309,494.605377 316.991882,494.567078 
	C325.075714,494.534119 333.159180,494.423859 341.242828,494.348145 
	C349.976105,494.266327 358.723083,494.416656 367.430756,493.901855 
	C369.110565,493.802521 371.265778,491.394196 372.130157,489.549103 
	C377.352325,478.402557 381.757080,466.841461 387.516479,455.993103 
	C389.963654,451.383667 390.451508,444.593445 397.625305,442.959137 
z"/>
<path fill="#D0D0CF" opacity="1.000000" stroke="none" 
	d="
M402.713715,365.482849 
	C400.381714,366.628326 397.762482,368.061523 394.992096,368.470215 
	C389.111450,369.337708 383.152130,369.671753 377.128174,369.916931 
	C385.473511,368.175018 393.915771,366.740692 402.713715,365.482849 
z"/>
<path fill="#CDCFD2" opacity="1.000000" stroke="none" 
	d="
M752.020996,379.979095 
	C754.524109,380.027405 757.413818,380.493835 755.274048,376.384369 
	C763.025574,375.450989 770.106812,374.271820 776.454834,380.390167 
	C774.283813,375.804535 776.082214,374.848694 779.501770,374.990723 
	C784.278259,375.189056 789.058472,375.293762 793.835693,375.476715 
	C802.208069,375.797333 809.741577,372.751526 817.296082,369.732483 
	C819.051147,369.031067 820.950623,367.962219 822.701965,368.100006 
	C833.102661,368.918518 842.874817,371.130951 851.856812,377.375244 
	C857.816528,381.518463 862.923035,385.933411 865.786377,392.397919 
	C869.140442,399.970490 869.862061,407.510071 866.413330,415.838440 
	C863.658691,422.490875 859.222534,427.753815 854.214783,431.627136 
	C848.413269,436.114502 840.812927,438.772430 833.592468,440.787842 
	C826.519775,442.762054 818.966248,443.281403 811.579529,443.769531 
	C806.501526,444.105072 801.350464,443.102966 796.227844,443.040588 
	C785.401184,442.908752 774.570801,443.095886 763.743713,442.982361 
	C737.464600,442.706787 711.185608,442.390717 684.908508,441.970673 
	C675.345642,441.817841 665.787903,441.332581 656.229126,440.965240 
	C655.640015,440.942596 655.062378,440.623779 653.197937,440.044952 
	C655.560730,438.706390 656.904480,437.511444 658.441528,437.158722 
	C662.460754,436.236359 666.595276,435.816956 670.615906,434.899384 
	C671.829712,434.622375 673.612976,433.504852 673.776794,432.541443 
	C674.474670,428.435760 676.473450,428.630585 680.748779,431.522369 
	C680.300598,425.681244 679.948975,421.098755 679.310303,415.875000 
	C678.892883,412.535767 679.715210,411.497955 682.556396,412.773407 
	C687.919434,415.181000 687.959473,415.091827 687.714539,409.300171 
	C689.388611,408.320770 691.092651,407.323792 692.781250,406.335846 
	C696.292969,410.225616 697.379028,410.128601 700.250305,405.738159 
	C702.654114,402.062439 705.802246,401.594879 709.367676,404.134491 
	C710.141602,404.685822 711.822937,404.973083 712.470947,404.513733 
	C715.071350,402.670532 717.429932,400.486084 720.046570,398.286011 
	C718.085266,397.066406 716.641968,396.168854 714.703064,394.963135 
	C721.563293,391.893982 721.286377,401.492981 727.450989,400.584595 
	C725.630005,398.573792 724.440918,397.260742 722.398010,395.004883 
	C725.437012,395.004883 727.216064,395.004883 729.029541,395.289825 
	C729.371460,395.896606 729.679016,396.218475 729.986572,396.540314 
	C730.169250,396.329895 730.351990,396.119507 730.534668,395.909119 
	C730.024780,395.604462 729.514832,395.299805 729.006409,394.601135 
	C727.813843,392.058990 726.619751,389.910828 724.819641,386.672485 
	C729.111328,389.957489 732.167908,388.837738 735.060059,386.209717 
	C735.442383,385.862244 736.343201,386.085388 737.003906,386.044281 
	C738.244873,386.538757 739.605652,387.634888 740.704590,387.416016 
	C744.142883,386.731201 747.482422,385.550201 751.822021,384.279938 
	C751.834717,384.024933 751.913330,382.444031 751.995972,380.431549 
	C752.000000,379.999969 752.020996,379.979095 752.020996,379.979095 
z"/>
<path fill="#DDDEE1" opacity="1.000000" stroke="none" 
	d="
M737.149658,385.734436 
	C736.343201,386.085388 735.442383,385.862244 735.060059,386.209717 
	C732.167908,388.837738 729.111328,389.957489 724.819641,386.672485 
	C726.619751,389.910828 727.813843,392.058990 729.003967,394.603577 
	C729.000000,395.000000 728.995117,395.004883 728.995117,395.004883 
	C727.216064,395.004883 725.437012,395.004883 722.398010,395.004883 
	C724.440918,397.260742 725.630005,398.573792 727.450989,400.584595 
	C721.286377,401.492981 721.563293,391.893982 714.703064,394.963135 
	C716.641968,396.168854 718.085266,397.066406 720.046570,398.286011 
	C717.429932,400.486084 715.071350,402.670532 712.470947,404.513733 
	C711.822937,404.973083 710.141602,404.685822 709.367676,404.134491 
	C705.802246,401.594879 702.654114,402.062439 700.250305,405.738159 
	C697.379028,410.128601 696.292969,410.225616 692.781250,406.335846 
	C691.092651,407.323792 689.388611,408.320770 687.714539,409.300171 
	C687.959473,415.091827 687.919434,415.181000 682.556396,412.773407 
	C679.715210,411.497955 678.892883,412.535767 679.036011,415.619324 
	C676.562561,417.094513 674.076294,418.184174 670.884949,419.582855 
	C670.703735,418.235596 670.386536,415.877838 670.012756,413.099579 
	C665.648621,414.655090 661.194641,416.242615 656.350098,417.969360 
	C657.087585,419.004272 657.875488,420.109955 658.819702,421.434998 
	C654.651123,426.533722 653.880127,421.248474 651.550720,418.681244 
	C646.866150,425.303925 639.582397,423.498535 633.016846,424.159180 
	C632.220276,428.421356 630.304016,429.338104 626.428650,428.087860 
	C625.004639,427.628418 623.204102,428.335999 621.575317,428.511230 
	C622.066711,430.129852 622.158142,432.080750 623.154297,433.280151 
	C624.311584,434.673462 626.262268,435.407776 628.998657,437.145874 
	C623.496094,437.957794 620.405518,441.722992 615.024719,439.379425 
	C611.810669,437.979553 607.242920,439.882324 603.275635,439.983002 
	C587.176086,440.391754 571.074585,440.790100 554.971375,440.965790 
	C545.508423,441.069092 536.040894,440.746368 526.601501,440.151642 
	C531.032471,439.304993 533.321472,434.432190 538.131287,434.376526 
	C539.202454,434.364136 540.234680,430.979919 541.300903,429.120117 
	C545.468201,433.510986 552.508911,433.828857 555.411743,429.819519 
	C555.578247,429.589539 555.522217,429.198486 555.554138,428.986115 
	C554.393433,428.368164 553.301636,427.786896 552.209839,427.205627 
	C552.591919,426.485413 552.973999,425.765198 553.356079,425.044983 
	C555.789856,425.312195 558.353699,425.181610 560.631226,425.926514 
	C565.967590,427.671783 567.378784,426.930847 567.811646,421.460449 
	C571.902649,420.199646 575.947144,418.953186 579.025574,418.004456 
	C581.494751,416.422577 583.328247,414.247833 585.033203,414.344391 
	C590.014404,414.626404 593.085754,411.429901 595.630615,408.478363 
	C597.305542,406.535858 597.910034,404.853088 600.831421,405.697632 
	C601.623413,405.926636 602.753296,404.828003 603.772339,404.461975 
	C606.138977,403.611969 608.719971,401.845337 610.873535,402.252258 
	C614.583435,402.953308 617.422180,402.951447 620.230774,400.071533 
	C621.151306,399.127625 623.375977,399.566162 624.912842,399.082062 
	C626.495972,398.583405 627.998718,397.790405 629.481018,397.019196 
	C631.801270,395.811981 634.291992,393.220520 636.316956,393.560364 
	C639.323425,394.064972 640.611023,392.800842 641.311584,390.900970 
	C642.641296,387.294983 645.300171,387.221863 648.431274,386.891418 
	C652.031311,386.511536 655.544128,385.304199 659.094788,384.456238 
	C659.011414,383.906036 658.927979,383.355865 658.844604,382.805664 
	C657.095947,382.242004 655.347229,381.678345 654.562378,381.425354 
	C654.886047,377.648987 655.254089,374.422546 655.319885,371.189941 
	C655.327759,370.801422 653.618958,370.489532 652.849182,369.941071 
	C652.134460,369.431854 651.611267,368.653656 651.003784,367.993896 
	C666.432556,367.995026 681.866455,367.756012 697.288208,368.085022 
	C706.928223,368.290710 716.553223,369.311890 726.175842,370.081268 
	C727.377747,370.177338 728.523621,370.972870 730.052734,371.588043 
	C729.062561,373.188538 728.305481,374.412262 726.975159,375.701843 
	C725.430481,375.959747 724.459045,376.151764 723.487610,376.343811 
	C723.902466,377.912048 724.317322,379.480286 724.732178,381.048553 
	C725.182190,381.081970 725.632202,381.115417 726.082214,381.148834 
	C726.708069,379.760498 727.333923,378.372162 727.959778,376.983826 
	C728.140015,376.984436 728.320312,376.985077 728.791016,377.327271 
	C729.628601,378.696167 730.175903,379.723480 730.982239,381.237122 
	C731.883057,379.767548 732.438599,378.861176 732.994202,377.954773 
	C733.755127,377.964752 734.516052,377.974762 735.688477,378.306641 
	C736.739380,379.074005 737.378784,379.519470 738.018188,379.964935 
	C737.777283,381.784821 737.536377,383.604706 737.149658,385.734436 
z"/>
<path fill="#E5E6E8" opacity="1.000000" stroke="none" 
	d="
M650.534790,367.992950 
	C651.611267,368.653656 652.134460,369.431854 652.849182,369.941071 
	C653.618958,370.489532 655.327759,370.801422 655.319885,371.189941 
	C655.254089,374.422546 654.886047,377.648987 654.562378,381.425354 
	C655.347229,381.678345 657.095947,382.242004 658.844604,382.805664 
	C658.927979,383.355865 659.011414,383.906036 659.094788,384.456238 
	C655.544128,385.304199 652.031311,386.511536 648.431274,386.891418 
	C645.300171,387.221863 642.641296,387.294983 641.311584,390.900970 
	C640.611023,392.800842 639.323425,394.064972 636.316956,393.560364 
	C634.291992,393.220520 631.801270,395.811981 629.481018,397.019196 
	C627.998718,397.790405 626.495972,398.583405 624.912842,399.082062 
	C623.375977,399.566162 621.151306,399.127625 620.230774,400.071533 
	C617.422180,402.951447 614.583435,402.953308 610.873535,402.252258 
	C608.719971,401.845337 606.138977,403.611969 603.772339,404.461975 
	C602.753296,404.828003 601.623413,405.926636 600.831421,405.697632 
	C597.910034,404.853088 597.305542,406.535858 595.630615,408.478363 
	C593.085754,411.429901 590.014404,414.626404 585.033203,414.344391 
	C583.328247,414.247833 581.494751,416.422577 579.025574,418.004456 
	C575.947144,418.953186 571.902649,420.199646 567.811646,421.460449 
	C567.378784,426.930847 565.967590,427.671783 560.631226,425.926514 
	C558.353699,425.181610 555.789856,425.312195 553.356079,425.044983 
	C552.973999,425.765198 552.591919,426.485413 552.209839,427.205627 
	C553.301636,427.786896 554.393433,428.368164 555.554138,428.986115 
	C555.522217,429.198486 555.578247,429.589539 555.411743,429.819519 
	C552.508911,433.828857 545.468201,433.510986 541.300903,429.120117 
	C540.234680,430.979919 539.202454,434.364136 538.131287,434.376526 
	C533.321472,434.432190 531.032471,439.304993 526.298645,439.861084 
	C525.533447,440.032196 525.097168,440.030273 524.122803,439.742310 
	C520.547119,437.474457 517.835388,437.087128 516.003235,441.005066 
	C492.317688,441.014893 468.632141,441.024689 444.544373,440.660217 
	C447.683594,439.191833 451.166168,437.447540 454.777100,437.120331 
	C467.772217,435.942841 478.372528,429.298981 489.494751,423.429321 
	C493.592804,421.266602 497.749878,416.043274 503.834778,419.658081 
	C504.397583,419.992401 506.077942,418.662659 507.120361,417.935120 
	C511.666534,414.761963 516.112549,411.441406 520.726013,408.371277 
	C521.895325,407.593109 523.768188,407.870514 524.934631,407.090149 
	C528.085083,404.982422 531.031433,403.605560 535.213379,403.744415 
	C540.364624,403.915527 545.575256,402.343018 550.754944,401.491760 
	C551.042236,401.444550 551.370544,401.155396 551.528931,400.889130 
	C553.947937,396.821198 558.087708,396.470459 562.154602,395.412872 
	C565.259949,394.605377 569.421143,393.004211 570.551758,390.567719 
	C572.354187,386.683502 574.073242,385.406433 578.041199,386.390747 
	C578.803040,386.579712 579.859192,385.582672 580.779541,385.132812 
	C580.268433,384.109253 579.961365,382.875854 579.187134,382.122803 
	C578.454590,381.410278 577.231506,381.201965 577.459167,381.299164 
	C577.649048,375.961914 577.806030,371.551239 577.963013,367.140594 
	C601.997253,367.424408 626.031494,367.708191 650.534790,367.992950 
M649.615051,376.479126 
	C648.568481,376.370209 647.521912,376.261261 646.475342,376.152313 
	C646.534912,376.689484 646.594543,377.226654 646.654114,377.763824 
	C647.533142,377.522186 648.412231,377.280548 649.615051,376.479126 
M650.434814,380.705017 
	C650.705933,380.989044 650.977051,381.273071 651.248169,381.557129 
	C651.365784,381.444763 651.591797,381.240845 651.585327,381.233215 
	C651.332336,380.933624 651.058167,380.651947 650.434814,380.705017 
z"/>
<path fill="#ECEDEF" opacity="1.000000" stroke="none" 
	d="
M577.507080,367.107239 
	C577.806030,371.551239 577.649048,375.961914 577.459167,381.299164 
	C577.231506,381.201965 578.454590,381.410278 579.187134,382.122803 
	C579.961365,382.875854 580.268433,384.109253 580.779541,385.132812 
	C579.859192,385.582672 578.803040,386.579712 578.041199,386.390747 
	C574.073242,385.406433 572.354187,386.683502 570.551758,390.567719 
	C569.421143,393.004211 565.259949,394.605377 562.154602,395.412872 
	C558.087708,396.470459 553.947937,396.821198 551.528931,400.889130 
	C551.370544,401.155396 551.042236,401.444550 550.754944,401.491760 
	C545.575256,402.343018 540.364624,403.915527 535.213379,403.744415 
	C531.031433,403.605560 528.085083,404.982422 524.934631,407.090149 
	C523.768188,407.870514 521.895325,407.593109 520.726013,408.371277 
	C516.112549,411.441406 511.666534,414.761963 507.120361,417.935120 
	C506.077942,418.662659 504.397583,419.992401 503.834778,419.658081 
	C497.749878,416.043274 493.592804,421.266602 489.494751,423.429321 
	C478.372528,429.298981 467.772217,435.942841 454.777100,437.120331 
	C451.166168,437.447540 447.683594,439.191833 444.076385,440.656494 
	C436.314423,441.346802 428.618256,441.666626 420.452576,441.960388 
	C421.459930,439.676056 423.012177,437.462585 424.388153,435.144501 
	C425.372681,433.485962 426.120972,431.687195 427.211334,429.469604 
	C425.483978,429.469604 424.452698,429.469604 423.369446,429.469604 
	C423.455322,428.885406 423.384766,428.404388 423.566345,428.273773 
	C426.514282,426.153015 429.411743,423.941742 432.504547,422.051910 
	C433.880371,421.211151 435.902924,421.381134 437.202972,420.476135 
	C438.836243,419.339172 440.029602,417.570251 441.770355,415.687286 
	C443.948120,417.021942 445.422852,415.410828 448.032349,413.947266 
	C453.894531,410.659454 457.971252,404.419952 465.643982,403.736237 
	C469.807678,403.365204 474.047516,400.935242 477.687866,398.565735 
	C480.389404,396.807251 481.660004,396.784760 482.794067,399.953857 
	C485.588715,397.959717 487.864838,395.506714 490.656128,394.537811 
	C494.858307,393.079224 499.416351,392.635284 503.831390,391.803925 
	C507.527893,391.107880 511.236237,390.474701 514.939331,389.813721 
	C515.173218,389.015564 515.407166,388.217407 515.641052,387.419250 
	C512.280334,383.703552 508.919678,379.987854 505.077393,375.739685 
	C507.016174,370.860687 506.780823,370.181946 501.622986,368.883728 
	C501.071533,368.744965 500.636902,368.141876 500.071808,367.387482 
	C525.680725,367.038483 551.365906,367.056183 577.507080,367.107239 
M477.852081,426.238953 
	C477.246155,425.903717 476.640228,425.568512 476.034363,425.233276 
	C475.867035,425.610138 475.699707,425.987000 475.532379,426.363892 
	C476.297485,426.524841 477.062622,426.685822 477.852081,426.238953 
z"/>
<path fill="#CDCFD2" opacity="1.000000" stroke="none" 
	d="
M636.045288,437.000000 
	C638.937622,437.618073 641.829956,438.236145 644.722290,438.854218 
	C644.618347,439.479645 644.514465,440.105072 644.410522,440.730499 
	C640.276489,440.207489 635.851624,443.230225 632.382446,438.442017 
	C633.836548,437.678864 634.940918,437.339447 636.045288,437.000000 
z"/>
<path fill="#DDDEE1" opacity="1.000000" stroke="none" 
	d="
M516.432373,441.007996 
	C517.835388,437.087128 520.547119,437.474457 523.795410,439.747559 
	C521.624573,440.362823 519.243042,440.686859 516.432373,441.007996 
z"/>
<path fill="#CDCFD2" opacity="1.000000" stroke="none" 
	d="
M727.753174,376.881226 
	C727.333923,378.372162 726.708069,379.760498 726.082214,381.148834 
	C725.632202,381.115417 725.182190,381.081970 724.732178,381.048553 
	C724.317322,379.480286 723.902466,377.912048 723.487610,376.343811 
	C724.459045,376.151764 725.430481,375.959747 726.706665,375.904846 
	C727.111023,376.344757 727.289368,376.590302 727.753174,376.881226 
z"/>
<path fill="#CDCFD2" opacity="1.000000" stroke="none" 
	d="
M732.949585,377.641602 
	C732.438599,378.861176 731.883057,379.767548 730.982239,381.237122 
	C730.175903,379.723480 729.628601,378.696167 729.061401,377.330750 
	C730.329285,377.104584 731.617126,377.216492 732.949585,377.641602 
z"/>
<path fill="#ECEDEF" opacity="1.000000" stroke="none" 
	d="
M497.576111,367.007233 
	C496.399933,370.078369 494.368530,369.672089 492.073181,367.380005 
	C493.713470,367.007294 495.430359,366.999176 497.576111,367.007233 
z"/>
<path fill="#CDCFD2" opacity="1.000000" stroke="none" 
	d="
M668.759033,429.403625 
	C670.156189,429.363556 671.298096,429.526917 672.439941,429.690277 
	C672.192810,430.319427 671.945740,430.948547 671.698608,431.577698 
	C670.633606,430.920807 669.568665,430.263916 668.759033,429.403625 
z"/>
<path fill="#DDDEE1" opacity="1.000000" stroke="none" 
	d="
M635.872559,436.692871 
	C634.940918,437.339447 633.836548,437.678864 632.363647,438.031128 
	C632.063538,434.885132 633.126221,433.947449 635.872559,436.692871 
z"/>
<path fill="#CDCFD2" opacity="1.000000" stroke="none" 
	d="
M650.544434,440.877869 
	C649.441223,440.479767 648.671631,440.021606 647.901978,439.563416 
	C648.347839,439.093781 648.793640,438.624146 649.239441,438.154510 
	C649.785583,439.042297 650.331787,439.930084 650.544434,440.877869 
z"/>
<path fill="#CDCFD2" opacity="1.000000" stroke="none" 
	d="
M738.181030,379.728851 
	C737.378784,379.519470 736.739380,379.074005 736.068970,378.305969 
	C737.114441,377.656494 738.190979,377.329590 739.623535,377.332764 
	C739.972595,378.108795 739.965698,378.554749 739.958740,379.000702 
	C739.420471,379.164703 738.882202,379.328735 738.181030,379.728851 
z"/>
<path fill="#CDCFD2" opacity="1.000000" stroke="none" 
	d="
M751.989624,380.010437 
	C751.063416,379.602905 750.147583,379.184875 749.231812,378.766846 
	C749.505188,378.269409 749.778442,377.771942 750.051758,377.274475 
	C750.697266,377.931549 751.342896,378.588654 752.004761,379.612427 
	C752.020996,379.979095 752.000000,379.999969 751.989624,380.010437 
z"/>
<path fill="#DDDEE1" opacity="1.000000" stroke="none" 
	d="
M740.163208,379.249512 
	C739.965698,378.554749 739.972595,378.108795 739.967773,377.328369 
	C740.842468,377.662140 741.728882,378.330383 742.615295,378.998596 
	C741.866089,379.165161 741.116821,379.331757 740.163208,379.249512 
z"/>
<path fill="#ECEDEF" opacity="1.000000" stroke="none" 
	d="
M414.401062,442.010254 
	C414.816254,439.254272 416.174164,439.358856 417.942566,441.601074 
	C416.941406,441.967163 415.871765,441.994446 414.401062,442.010254 
z"/>
<path fill="#ECEDEF" opacity="1.000000" stroke="none" 
	d="
M489.669403,367.001129 
	C489.767731,367.527893 489.531738,368.040955 489.295776,368.554047 
	C488.889679,368.237152 488.483582,367.920227 488.037354,367.306976 
	C488.443176,367.002899 488.889160,366.995148 489.669403,367.001129 
z"/>
<path fill="#4395C4" opacity="1.000000" stroke="none" 
	d="
M556.847229,488.873840 
	C557.353455,487.667816 557.859741,486.461761 558.748413,485.478699 
	C561.022095,485.522705 562.913330,485.343719 565.900269,485.061005 
	C566.096252,485.919434 567.420227,488.222809 566.798889,489.717438 
	C565.458069,492.942535 563.118408,495.752319 560.995361,499.028351 
	C562.723389,499.383148 565.042908,500.026733 567.405640,500.312439 
	C573.893433,501.096924 580.430481,501.528992 586.883362,502.521362 
	C589.575806,502.935425 591.357544,503.163574 592.102295,499.937103 
	C592.347046,498.876678 593.631592,497.212952 594.379089,497.245422 
	C600.312439,497.503143 606.681946,494.987335 610.889038,498.847687 
	C615.765137,497.974854 619.736816,497.531799 623.557312,496.518860 
	C629.695007,494.891632 635.706787,492.053284 641.841797,496.554230 
	C642.538208,497.065186 643.751648,496.947723 644.730530,496.985016 
	C651.563599,497.245453 658.214783,496.909790 663.040100,491.006775 
	C660.162964,497.573975 658.137939,504.710358 654.217163,510.580475 
	C647.646973,520.417114 640.471863,530.011780 632.400818,538.630859 
	C626.317566,545.127197 618.844421,550.594482 611.249023,555.332092 
	C602.104980,561.035706 592.456848,566.163757 582.498901,570.256042 
	C574.553833,573.521118 565.923950,576.140320 557.415039,576.848816 
	C498.152649,581.782776 438.750854,577.955933 379.414886,578.992798 
	C353.597382,579.443970 327.765411,579.068787 301.518921,578.715942 
	C301.983521,577.269714 302.869293,576.176331 303.531616,575.358826 
	C301.681671,573.613647 300.313385,571.658447 298.436279,570.702209 
	C295.346863,569.128540 292.303375,566.530151 288.281647,569.016602 
	C286.871613,569.888428 284.802521,569.987366 283.043365,569.954773 
	C269.519348,569.703674 255.996109,569.066589 242.475754,569.138428 
	C237.447006,569.165100 234.039261,567.506714 230.464233,562.623657 
	C238.188507,562.242981 240.825699,557.245728 242.397064,551.063354 
	C239.482101,549.088013 238.528397,550.635376 236.473434,553.115295 
	C234.638443,555.329834 230.572205,555.750854 227.426636,556.765076 
	C226.948425,556.919250 226.123840,555.999023 225.459457,555.575684 
	C226.719803,554.257874 227.995346,552.953918 229.223038,551.606384 
	C229.392914,551.419983 229.326172,551.017944 229.281616,551.332336 
	C226.647705,549.670593 224.248810,548.157104 221.479507,546.409912 
	C221.420166,547.480103 221.474380,548.523865 221.280746,549.519409 
	C220.994675,550.989929 220.532333,552.426270 220.145081,553.877136 
	C219.429932,552.484741 218.645172,551.122925 218.018311,549.691833 
	C217.325119,548.109314 216.776505,546.463440 216.164917,544.845154 
	C215.635941,545.008240 215.106949,545.171326 214.577972,545.334351 
	C214.100739,548.831665 213.623505,552.328979 213.039581,556.608154 
	C211.288254,555.385071 210.559509,555.007446 209.995728,554.460022 
	C207.300125,551.842468 205.060364,547.774170 201.890366,546.846436 
	C196.546188,545.282410 195.688492,542.382019 195.870468,537.743469 
	C195.920593,536.466064 194.470505,535.129944 193.708786,533.820740 
	C193.296692,534.099854 192.884598,534.378967 192.472504,534.658081 
	C192.646210,536.098755 193.434402,537.876892 192.866806,538.910461 
	C191.653748,541.119141 189.738739,542.942444 188.111267,544.923584 
	C187.075867,542.964722 185.715576,541.097717 185.125763,539.012817 
	C184.766312,537.742249 186.031158,536.049011 185.763931,534.705200 
	C185.502243,533.389282 183.893448,531.119812 183.440598,531.248962 
	C177.818893,532.852173 174.380615,528.237915 169.881470,526.802002 
	C171.674942,525.659241 173.325760,524.072510 175.284210,523.443298 
	C192.316345,517.971558 209.477142,512.980164 227.481567,511.912933 
	C239.720276,511.187500 251.966675,510.593048 264.208191,509.913910 
	C275.290771,509.299011 286.365936,508.502197 297.455658,508.088135 
	C301.732574,507.928467 306.043945,508.890228 310.333893,508.840912 
	C321.051239,508.717804 331.771423,507.934937 342.479187,508.108887 
	C355.563629,508.321411 368.631897,509.578033 381.715820,509.759888 
	C395.159088,509.946747 408.612610,509.369812 422.062073,509.153015 
	C427.480011,509.065674 432.899078,509.008118 438.317657,509.003601 
	C469.379822,508.977692 500.442383,508.885193 531.503845,509.029236 
	C538.022705,509.059448 542.343445,506.219574 545.971497,501.131104 
	C548.747864,497.237122 552.167358,493.801697 555.657471,490.300293 
	C556.544189,490.699432 557.074158,490.960571 557.604187,491.221710 
	C557.351868,490.439087 557.099548,489.656464 556.847229,488.873840 
z"/>
<path fill="#4496CA" opacity="1.000000" stroke="none" 
	d="
M169.493408,526.835938 
	C174.380615,528.237915 177.818893,532.852173 183.440598,531.248962 
	C183.893448,531.119812 185.502243,533.389282 185.763931,534.705200 
	C186.031158,536.049011 184.766312,537.742249 185.125763,539.012817 
	C185.715576,541.097717 187.075867,542.964722 188.111267,544.923584 
	C189.738739,542.942444 191.653748,541.119141 192.866806,538.910461 
	C193.434402,537.876892 192.646210,536.098755 192.472504,534.658081 
	C192.884598,534.378967 193.296692,534.099854 193.708786,533.820740 
	C194.470505,535.129944 195.920593,536.466064 195.870468,537.743469 
	C195.688492,542.382019 196.546188,545.282410 201.890366,546.846436 
	C205.060364,547.774170 207.300125,551.842468 209.995728,554.460022 
	C210.559509,555.007446 211.288254,555.385071 213.039581,556.608154 
	C213.623505,552.328979 214.100739,548.831665 214.577972,545.334351 
	C215.106949,545.171326 215.635941,545.008240 216.164917,544.845154 
	C216.776505,546.463440 217.325119,548.109314 218.018311,549.691833 
	C218.645172,551.122925 219.429932,552.484741 220.145081,553.877136 
	C220.532333,552.426270 220.994675,550.989929 221.280746,549.519409 
	C221.474380,548.523865 221.420166,547.480103 221.479507,546.409912 
	C224.248810,548.157104 226.647705,549.670593 229.281616,551.332336 
	C229.326172,551.017944 229.392914,551.419983 229.223038,551.606384 
	C227.995346,552.953918 226.719803,554.257874 225.459457,555.575684 
	C226.123840,555.999023 226.948425,556.919250 227.426636,556.765076 
	C230.572205,555.750854 234.638443,555.329834 236.473434,553.115295 
	C238.528397,550.635376 239.482101,549.088013 242.397064,551.063354 
	C240.825699,557.245728 238.188507,562.242981 230.464233,562.623657 
	C234.039261,567.506714 237.447006,569.165100 242.475754,569.138428 
	C255.996109,569.066589 269.519348,569.703674 283.043365,569.954773 
	C284.802521,569.987366 286.871613,569.888428 288.281647,569.016602 
	C292.303375,566.530151 295.346863,569.128540 298.436279,570.702209 
	C300.313385,571.658447 301.681671,573.613647 303.531616,575.358826 
	C302.869293,576.176331 301.983521,577.269714 301.050568,578.704224 
	C294.646729,579.054932 288.290131,579.064392 281.408051,578.710693 
	C279.164185,576.279907 277.817535,576.226013 277.004608,579.063477 
	C267.997131,579.082153 258.989655,579.100769 249.329559,578.769165 
	C243.937195,575.828369 239.553894,576.424683 237.000900,580.007324 
	C233.307144,580.023743 229.613388,580.040161 225.371613,579.647095 
	C219.712967,579.059570 214.602600,578.869690 209.490463,578.761169 
	C209.337448,578.757935 209.166321,579.607727 209.003632,580.059814 
	C199.616974,580.355591 190.230316,580.651367 180.322113,580.545349 
	C179.118973,579.768433 178.439545,579.071106 177.755402,579.066406 
	C167.111115,578.994019 156.465576,578.959656 145.822662,579.097046 
	C144.874664,579.109314 143.942825,580.372986 143.003479,581.055420 
	C138.976791,581.063049 134.950089,581.070679 130.375000,580.666077 
	C125.306740,579.889587 120.789345,579.476807 116.262627,579.247742 
	C115.874496,579.228088 115.424583,580.428955 115.003380,581.062866 
	C108.785057,581.062866 102.566734,581.062866 96.348404,581.062866 
	C96.064491,580.458923 95.780586,579.854980 95.496681,579.250977 
	C109.175430,562.890320 126.120445,550.311340 144.890182,538.983948 
	C146.732651,537.949402 147.844986,536.930542 148.957321,535.911682 
	C149.428207,535.599243 149.899109,535.286804 150.849823,535.202759 
	C152.219009,534.610535 153.108398,533.790039 153.997772,532.969482 
	C153.997772,532.969482 154.435272,532.924316 155.070450,532.951843 
	C158.039978,532.907166 160.830902,533.583496 160.906006,529.807373 
	C163.639130,528.828186 166.372253,527.849060 169.493408,526.835938 
M168.228424,534.825684 
	C169.224564,535.530273 170.730042,537.039978 171.123093,536.791321 
	C172.396362,535.985840 173.261459,534.535095 174.283768,533.332825 
	C173.868668,532.794495 173.453552,532.256165 173.038437,531.717834 
	C171.542496,532.525085 170.046539,533.332336 168.228424,534.825684 
M178.634109,542.223633 
	C177.832352,540.874146 177.030594,539.524719 176.228836,538.175232 
	C175.593781,538.811951 174.958725,539.448608 174.323669,540.085327 
	C175.582870,540.962524 176.842072,541.839661 178.634109,542.223633 
M147.816376,545.118042 
	C146.578979,545.478027 145.341568,545.838013 144.104156,546.197937 
	C144.487518,546.856812 144.870865,547.515686 145.254211,548.174561 
	C146.148148,547.388733 147.042099,546.602905 147.816376,545.118042 
M212.566406,563.634888 
	C212.833145,563.123108 213.099884,562.611328 213.366608,562.099548 
	C212.834137,561.878357 212.301666,561.657227 211.769180,561.436096 
	C211.860718,562.079590 211.952255,562.723022 212.566406,563.634888 
M218.563873,562.294495 
	C218.293274,562.010803 218.022659,561.727173 217.752045,561.443481 
	C217.634659,561.555664 217.408981,561.759216 217.415482,561.766968 
	C217.667999,562.066162 217.941742,562.347412 218.563873,562.294495 
z"/>
<path fill="#479BCB" opacity="1.000000" stroke="none" 
	d="
M663.086792,490.651245 
	C658.214783,496.909790 651.563599,497.245453 644.730530,496.985016 
	C643.751648,496.947723 642.538208,497.065186 641.841797,496.554230 
	C635.706787,492.053284 629.695007,494.891632 623.557312,496.518860 
	C619.736816,497.531799 615.765137,497.974854 610.889038,498.847687 
	C606.681946,494.987335 600.312439,497.503143 594.379089,497.245422 
	C593.631592,497.212952 592.347046,498.876678 592.102295,499.937103 
	C591.357544,503.163574 589.575806,502.935425 586.883362,502.521362 
	C580.430481,501.528992 573.893433,501.096924 567.405640,500.312439 
	C565.042908,500.026733 562.723389,499.383148 560.995361,499.028351 
	C563.118408,495.752319 565.458069,492.942535 566.798889,489.717438 
	C567.420227,488.222809 566.096252,485.919434 565.900269,485.061005 
	C562.913330,485.343719 561.022095,485.522705 559.062744,485.344421 
	C563.753418,478.710327 568.243530,472.197601 573.425354,466.291840 
	C575.109009,464.372925 578.595581,463.138428 581.267334,463.121307 
	C611.194702,462.929718 641.124023,463.037506 671.558472,463.418335 
	C672.773499,464.535248 673.482849,465.298584 674.192261,466.061920 
	C674.192261,466.061920 674.168152,466.546204 673.714966,466.775024 
	C669.659607,466.726074 666.057434,466.448364 662.455200,466.170624 
	C662.278809,466.731476 662.102356,467.292358 661.925903,467.853210 
	C663.224792,468.429749 664.501160,469.420929 665.827332,469.492676 
	C668.256348,469.624146 670.714722,469.212708 673.160889,469.027679 
	C669.818359,476.117035 666.475891,483.206390 663.086792,490.651245 
z"/>
<path fill="#4395C4" opacity="1.000000" stroke="none" 
	d="
M143.471878,581.063721 
	C143.942825,580.372986 144.874664,579.109314 145.822662,579.097046 
	C156.465576,578.959656 167.111115,578.994019 177.755402,579.066406 
	C178.439545,579.071106 179.118973,579.768433 179.900406,580.528625 
	C167.980225,580.966431 155.960251,581.019165 143.471878,581.063721 
z"/>
<path fill="#4395C4" opacity="1.000000" stroke="none" 
	d="
M237.457825,580.023376 
	C239.553894,576.424683 243.937195,575.828369 248.864380,578.776855 
	C245.339478,579.436340 241.627121,579.737915 237.457825,580.023376 
z"/>
<path fill="#4395C4" opacity="1.000000" stroke="none" 
	d="
M673.385620,468.846924 
	C670.714722,469.212708 668.256348,469.624146 665.827332,469.492676 
	C664.501160,469.420929 663.224792,468.429749 661.925903,467.853210 
	C662.102356,467.292358 662.278809,466.731476 662.455200,466.170624 
	C666.057434,466.448364 669.659607,466.726074 673.670288,467.013275 
	C673.922546,467.570557 673.766418,468.118378 673.385620,468.846924 
z"/>
<path fill="#4395C4" opacity="1.000000" stroke="none" 
	d="
M209.470200,580.069214 
	C209.166321,579.607727 209.337448,578.757935 209.490463,578.761169 
	C214.602600,578.869690 219.712967,579.059570 224.910919,579.637939 
	C219.977753,580.051758 214.957260,580.065186 209.470200,580.069214 
z"/>
<path fill="#4395C4" opacity="1.000000" stroke="none" 
	d="
M115.469254,581.070496 
	C115.424583,580.428955 115.874496,579.228088 116.262627,579.247742 
	C120.789345,579.476807 125.306740,579.889587 129.911636,580.656616 
	C125.309494,581.065613 120.622314,581.071838 115.469254,581.070496 
z"/>
<path fill="#4395C4" opacity="1.000000" stroke="none" 
	d="
M160.552032,529.851196 
	C160.830902,533.583496 158.039978,532.907166 155.290344,532.955505 
	C156.649384,531.919434 158.423737,530.907288 160.552032,529.851196 
z"/>
<path fill="#4395C4" opacity="1.000000" stroke="none" 
	d="
M148.629456,535.956177 
	C147.844986,536.930542 146.732651,537.949402 145.238663,538.944824 
	C146.005188,537.947815 147.153381,536.974304 148.629456,535.956177 
z"/>
<path fill="#4395C4" opacity="1.000000" stroke="none" 
	d="
M277.403748,579.070679 
	C277.817535,576.226013 279.164185,576.279907 280.939514,578.701538 
	C279.931885,579.062988 278.867371,579.070496 277.403748,579.070679 
z"/>
<path fill="#4395C4" opacity="1.000000" stroke="none" 
	d="
M153.676498,532.993347 
	C153.108398,533.790039 152.219009,534.610535 151.144165,535.175476 
	C151.757553,534.285645 152.556381,533.651428 153.676498,532.993347 
z"/>
<path fill="#4395C4" opacity="1.000000" stroke="none" 
	d="
M674.402344,465.839478 
	C673.482849,465.298584 672.773499,464.535248 672.024780,463.454834 
	C672.861206,463.964172 673.736816,464.790619 674.402344,465.839478 
z"/>
<path fill="#479BCB" opacity="1.000000" stroke="none" 
	d="
M556.651428,488.989502 
	C557.099548,489.656464 557.351868,490.439087 557.604187,491.221710 
	C557.074158,490.960571 556.544189,490.699432 555.940674,490.112701 
	C556.005432,489.509857 556.201538,489.282562 556.651428,488.989502 
z"/>
<path fill="#DDDEE1" opacity="1.000000" stroke="none" 
	d="
M729.002441,394.997559 
	C729.514832,395.299805 730.024780,395.604462 730.534668,395.909119 
	C730.351990,396.119507 730.169250,396.329895 729.986572,396.540314 
	C729.679016,396.218475 729.371460,395.896606 729.029541,395.289825 
	C728.995117,395.004883 729.000000,395.000000 729.002441,394.997559 
z"/>
<path fill="#DDDEE1" opacity="1.000000" stroke="none" 
	d="
M649.453125,376.759003 
	C648.412231,377.280548 647.533142,377.522186 646.654114,377.763824 
	C646.594543,377.226654 646.534912,376.689484 646.475342,376.152313 
	C647.521912,376.261261 648.568481,376.370209 649.453125,376.759003 
z"/>
<path fill="#DDDEE1" opacity="1.000000" stroke="none" 
	d="
M650.610779,380.536438 
	C651.058167,380.651947 651.332336,380.933624 651.585327,381.233215 
	C651.591797,381.240845 651.365784,381.444763 651.248169,381.557129 
	C650.977051,381.273071 650.705933,380.989044 650.610779,380.536438 
z"/>
<path fill="#E5E6E8" opacity="1.000000" stroke="none" 
	d="
M477.839905,426.542877 
	C477.062622,426.685822 476.297485,426.524841 475.532410,426.363892 
	C475.699707,425.987000 475.867035,425.610138 476.034363,425.233276 
	C476.640228,425.568512 477.246155,425.903717 477.839905,426.542877 
z"/>
<path fill="#4395C4" opacity="1.000000" stroke="none" 
	d="
M168.389496,534.482666 
	C170.046539,533.332336 171.542496,532.525085 173.038437,531.717834 
	C173.453552,532.256165 173.868668,532.794495 174.283768,533.332825 
	C173.261459,534.535095 172.396362,535.985840 171.123093,536.791321 
	C170.730042,537.039978 169.224564,535.530273 168.389496,534.482666 
z"/>
<path fill="#4395C4" opacity="1.000000" stroke="none" 
	d="
M178.367691,542.470215 
	C176.842072,541.839661 175.582870,540.962524 174.323669,540.085327 
	C174.958725,539.448608 175.593781,538.811951 176.228836,538.175232 
	C177.030594,539.524719 177.832352,540.874146 178.367691,542.470215 
z"/>
<path fill="#4395C4" opacity="1.000000" stroke="none" 
	d="
M147.876205,545.467529 
	C147.042099,546.602905 146.148148,547.388733 145.254211,548.174561 
	C144.870865,547.515686 144.487518,546.856812 144.104156,546.197937 
	C145.341568,545.838013 146.578979,545.478027 147.876205,545.467529 
z"/>
<path fill="#4395C4" opacity="1.000000" stroke="none" 
	d="
M212.305084,563.500732 
	C211.952255,562.723022 211.860718,562.079590 211.769196,561.436096 
	C212.301666,561.657227 212.834137,561.878357 213.366608,562.099548 
	C213.099884,562.611328 212.833145,563.123108 212.305084,563.500732 
z"/>
<path fill="#4395C4" opacity="1.000000" stroke="none" 
	d="
M218.388275,562.462769 
	C217.941742,562.347412 217.667999,562.066162 217.415482,561.766968 
	C217.408981,561.759216 217.634659,561.555664 217.752045,561.443481 
	C218.022659,561.727173 218.293274,562.010803 218.388275,562.462769 
z"/>
</svg>