<?xml version="1.0" standalone="no"?>
<!DOCTYPE svg PUBLIC "-//W3C//DTD SVG 20010904//EN"
 "http://www.w3.org/TR/2001/REC-SVG-20010904/DTD/svg10.dtd">
<svg version="1.0" xmlns="http://www.w3.org/2000/svg"
 width="972.000000pt" height="972.000000pt" viewBox="0 0 972.000000 972.000000"
 preserveAspectRatio="xMidYMid meet">
<metadata>
Created by potrace 1.14, written by Peter Selinger 2001-2017
</metadata>
<g transform="translate(0.000000,972.000000) scale(0.100000,-0.100000)"
fill="#000000" stroke="none">
<path d="M0 4860 l0 -4860 4860 0 4860 0 0 4860 0 4860 -4860 0 -4860 0 0
-4860z m8300 1199 c76 -12 83 -14 174 -59 79 -39 164 -118 188 -177 9 -21 22
-64 29 -95 11 -54 10 -63 -15 -143 -24 -75 -35 -93 -84 -143 -62 -63 -176
-125 -270 -148 -44 -10 -469 -12 -2203 -7 -2060 6 -2150 5 -2169 -12 -29 -26
-68 -100 -160 -301 -45 -98 -87 -185 -92 -191 -8 -10 -106 -13 -429 -13 -231
0 -419 4 -419 8 0 8 67 143 85 172 5 8 26 56 46 105 85 211 159 386 198 468
22 49 41 91 41 94 0 17 80 135 119 176 49 52 167 144 216 169 50 26 188 76
225 82 19 4 76 11 125 16 50 6 95 12 100 15 23 9 4232 -6 4295 -16z m-1560
-971 c0 -33 -76 -215 -105 -252 -8 -11 -15 -25 -15 -32 0 -20 -70 -164 -90
-184 -16 -16 -50 -71 -50 -81 0 -28 -291 -332 -307 -321 -2 2 -13 -6 -22 -17
-10 -12 -25 -21 -32 -21 -8 -1 -30 -14 -49 -30 -19 -17 -39 -30 -45 -30 -17 0
-65 -24 -65 -32 0 -5 -6 -8 -14 -8 -8 0 -34 -10 -58 -21 -23 -12 -54 -26 -68
-32 -52 -20 -75 -32 -82 -42 -5 -6 -8 -5 -8 3 0 9 -5 10 -19 2 -11 -5 -31 -10
-45 -10 -14 0 -26 -4 -26 -10 0 -5 -22 -10 -50 -10 -27 0 -50 -4 -50 -10 0 -5
-5 -10 -11 -10 -5 0 -7 5 -4 10 3 6 1 10 -4 10 -6 0 -11 -4 -11 -9 0 -5 -752
-11 -1792 -15 -986 -3 -2015 -9 -2286 -12 -322 -4 -492 -3 -492 4 0 20 187
199 288 277 7 6 18 15 25 20 28 25 106 75 116 75 6 0 11 4 11 8 0 5 12 15 28
22 15 8 34 19 42 26 69 55 318 155 510 205 233 60 635 86 1270 82 173 -1 721
-3 1217 -3 995 -1 933 -5 988 62 50 61 100 120 113 133 6 8 12 17 12 20 0 4
17 29 38 56 20 26 53 70 72 96 19 26 46 58 60 70 l25 23 493 0 c387 0 492 -3
492 -12z m-1158 -1365 c18 -22 138 -237 138 -248 0 -5 6 -16 14 -24 8 -9 31
-47 51 -86 20 -38 56 -104 79 -145 23 -41 61 -111 85 -155 24 -44 81 -145 126
-225 104 -183 137 -249 131 -259 -3 -4 -180 -6 -393 -3 -381 4 -388 4 -409 26
-12 11 -49 74 -83 139 -75 144 -98 184 -121 217 -10 14 -39 67 -65 118 -26 51
-52 95 -57 98 -5 3 -19 27 -32 52 -60 123 -138 251 -229 381 -37 52 -67 103
-67 113 0 17 21 18 408 18 377 0 410 -1 424 -17z m-3247 -8 c54 -11 148 -15
400 -15 182 0 335 -4 341 -8 8 -5 -29 -90 -116 -267 -118 -239 -228 -470 -356
-747 l-49 -108 -442 0 c-404 0 -477 4 -444 25 10 6 151 281 259 505 59 123
118 240 167 330 25 47 66 128 91 180 35 75 65 120 78 120 1 0 33 -7 71 -15z"/>
<path d="M5580 4765 c-11 -13 -10 -14 4 -9 9 3 16 10 16 15 0 13 -6 11 -20 -6z"/>
<path d="M5193 4603 c9 -2 23 -2 30 0 6 3 -1 5 -18 5 -16 0 -22 -2 -12 -5z"/>
<path d="M5248 4603 c6 -2 18 -2 25 0 6 3 1 5 -13 5 -14 0 -19 -2 -12 -5z"/>
<path d="M5845 4150 c3 -5 15 -10 26 -10 11 0 17 5 14 10 -3 6 -15 10 -26 10
-11 0 -17 -4 -14 -10z"/>
<path d="M5798 4123 c7 -3 16 -2 19 1 4 3 -2 6 -13 5 -11 0 -14 -3 -6 -6z"/>
<path d="M5710 4110 c20 -13 43 -13 35 0 -3 6 -16 10 -28 10 -18 0 -19 -2 -7
-10z"/>
<path d="M5665 4080 c-3 -5 1 -10 10 -10 9 0 13 5 10 10 -3 6 -8 10 -10 10 -2
0 -7 -4 -10 -10z"/>
<path d="M5608 4063 c7 -3 16 -2 19 1 4 3 -2 6 -13 5 -11 0 -14 -3 -6 -6z"/>
</g>
</svg>
